<?xml version="1.0" standalone="no"?>
<!DOCTYPE svg PUBLIC "-//W3C//DTD SVG 20010904//EN"
 "http://www.w3.org/TR/2001/REC-SVG-20010904/DTD/svg10.dtd">
<svg version="1.0" xmlns="http://www.w3.org/2000/svg"
 width="287.000000pt" height="287.000000pt" viewBox="0 0 287.000000 287.000000"
 preserveAspectRatio="xMidYMid meet">
<metadata>
Created by potrace 1.14, written by Peter Selinger 2001-2017
</metadata>
<g transform="translate(0.000000,287.000000) scale(0.100000,-0.100000)"
fill="#000000" stroke="none">
<path d="M1205 2774 c-564 -99 -1015 -551 -1109 -1113 -21 -122 -21 -330 0
-452 95 -564 549 -1018 1113 -1113 122 -21 330 -21 452 0 565 95 1018 548
1113 1113 21 122 21 330 0 452 -95 565 -548 1018 -1113 1113 -116 20 -345 20
-456 0z m335 -572 c0 -8 -758 -755 -772 -761 -13 -5 -89 26 -113 47 -77 65
-105 154 -105 333 0 196 34 282 135 344 l48 30 396 5 c218 3 399 7 404 8 4 1
7 -1 7 -6z m319 -23 c61 -27 265 -228 298 -294 35 -68 37 -169 4 -235 -16 -32
-143 -164 -429 -447 -365 -361 -413 -405 -462 -424 -71 -27 -155 -23 -223 11
-30 15 -91 69 -165 144 -108 111 -119 126 -136 183 -22 71 -18 116 14 190 18
44 79 109 378 405 407 404 469 461 514 475 57 19 158 15 207 -8z m329 -1064
l-3 -340 -30 -55 c-34 -62 -97 -114 -157 -131 -25 -6 -110 -9 -222 -7 -174 3
-183 4 -232 30 -52 27 -91 74 -119 140 l-15 38 387 384 388 384 3 -51 c2 -29
2 -205 0 -392z"/>
</g>
</svg>
